<?xml version="1.0" standalone="no"?>
<!DOCTYPE svg PUBLIC "-//W3C//DTD SVG 20010904//EN"
 "http://www.w3.org/TR/2001/REC-SVG-20010904/DTD/svg10.dtd">
<svg version="1.0" xmlns="http://www.w3.org/2000/svg"
 width="512.000000pt" height="512.000000pt" viewBox="0 0 512.000000 512.000000"
 preserveAspectRatio="xMidYMid meet">

<g transform="translate(0.000000,512.000000) scale(0.100000,-0.100000)"
fill="#000000" stroke="none">
<path d="M1106 4048 c-3 -156 -11 -616 -16 -1023 -6 -407 -15 -956 -20 -1220
-5 -264 -10 -593 -10 -731 l0 -250 26 -53 c41 -82 142 -141 241 -141 l34 0 -2
1830 -2 1830 -71 0 c-62 1 -96 8 -157 34 -14 6 -17 -22 -23 -276z"/>
<path d="M1602 3054 c-22 -15 -29 -48 -14 -70 7 -12 119 -76 292 -168 l105
-56 -51 0 c-100 0 -210 -55 -274 -135 -56 -71 -73 -121 -73 -220 0 -78 3 -98
27 -147 71 -145 220 -224 377 -199 192 31 330 226 290 408 -16 69 -43 127 -80
167 -14 16 -21 27 -16 24 6 -2 42 -19 80 -38 90 -44 166 -48 196 -11 24 30 24
46 -2 72 -16 16 -28 19 -57 14 -33 -5 -59 5 -237 95 -110 56 -213 110 -230
120 -16 9 -70 39 -120 65 -49 26 -103 55 -120 65 -47 28 -69 31 -93 14z m508
-454 c43 -43 56 -91 40 -147 -13 -48 -26 -65 -70 -92 -70 -42 -156 -20 -203
51 -98 151 106 315 233 188z m-224 -299 c15 -29 1 -68 -28 -76 -51 -17 -92 37
-63 82 22 32 74 29 91 -6z"/>
<path d="M3505 3009 c-95 -54 -262 -141 -488 -258 -114 -59 -147 -71 -186 -71
-51 0 -71 -12 -71 -45 0 -45 23 -60 92 -58 52 1 77 8 138 39 113 58 115 58 77
14 -50 -59 -77 -137 -77 -225 0 -141 71 -254 196 -316 59 -29 74 -32 153 -32
73 0 96 5 144 27 74 35 142 103 175 174 23 49 27 70 27 147 0 77 -4 98 -27
147 -34 73 -104 142 -176 176 -46 21 -72 26 -138 26 l-81 1 66 36 c36 19 107
57 156 84 180 97 201 119 151 162 -15 13 -30 23 -34 23 -4 0 -47 -23 -97 -51z
m-20 -390 c91 -54 87 -202 -7 -259 -47 -29 -114 -26 -161 5 -45 31 -67 71 -67
125 0 124 128 194 235 129z m-210 -305 c23 -24 15 -66 -16 -83 -24 -13 -29
-13 -53 2 -30 20 -35 57 -10 81 20 21 58 20 79 0z"/>
<path d="M2507 2132 c-100 -101 -117 -122 -117 -149 0 -31 21 -53 51 -53 6 0
48 36 94 80 l82 81 69 -83 c79 -94 110 -108 140 -63 13 20 14 31 7 48 -9 19
-129 169 -188 234 l-20 23 -118 -118z"/>
</g>
</svg>
